<svg width="578" height="475" viewBox="0 0 578 475" fill="none" xmlns="http://www.w3.org/2000/svg">
<g clip-path="url(#clip0)">
<path d="M178.006 265.14C178.006 235.799 201.84 166.173 231.241 166.173C260.642 166.173 284.476 235.799 284.476 265.14C284.466 279.233 278.852 292.745 268.87 302.707C258.888 312.668 245.353 318.264 231.241 318.264C217.129 318.264 203.595 312.668 193.612 302.707C183.63 292.745 178.017 279.233 178.006 265.14Z" fill="#F2F2F2"/>
<path d="M231.241 394.394C231.184 394.394 231.127 394.382 231.074 394.36C231.021 394.338 230.972 394.306 230.932 394.266C230.891 394.225 230.859 394.177 230.837 394.124C230.815 394.071 230.803 394.014 230.803 393.957V210.79C230.804 210.675 230.85 210.564 230.932 210.482C231.014 210.401 231.125 210.355 231.241 210.355C231.357 210.355 231.468 210.401 231.55 210.482C231.632 210.564 231.678 210.675 231.679 210.79V393.957C231.679 394.014 231.668 394.071 231.646 394.124C231.624 394.177 231.591 394.225 231.551 394.266C231.51 394.306 231.462 394.338 231.409 394.36C231.356 394.382 231.299 394.394 231.241 394.394Z" fill="#3F3D56"/>
<path d="M231.241 246.152C231.184 246.152 231.127 246.141 231.074 246.119C231.021 246.097 230.972 246.065 230.932 246.024L209.861 224.996C209.78 224.914 209.734 224.803 209.734 224.687C209.734 224.572 209.78 224.461 209.862 224.379C209.944 224.297 210.055 224.251 210.171 224.251C210.287 224.251 210.398 224.297 210.48 224.379L231.551 245.406C231.612 245.467 231.654 245.545 231.671 245.63C231.687 245.715 231.679 245.803 231.646 245.882C231.612 245.962 231.556 246.03 231.484 246.078C231.412 246.126 231.328 246.152 231.241 246.152Z" fill="#3F3D56"/>
<path d="M231.241 282.555C231.155 282.555 231.07 282.53 230.998 282.482C230.926 282.434 230.87 282.365 230.837 282.286C230.804 282.206 230.795 282.118 230.812 282.033C230.829 281.948 230.87 281.87 230.932 281.809L266.218 246.594C266.3 246.513 266.411 246.467 266.527 246.467C266.643 246.467 266.754 246.513 266.836 246.595C266.918 246.676 266.964 246.787 266.964 246.903C266.964 247.019 266.919 247.13 266.837 247.212L231.551 282.427C231.51 282.468 231.462 282.5 231.409 282.522C231.356 282.544 231.299 282.555 231.241 282.555Z" fill="#3F3D56"/>
<path d="M87.4211 234.117C87.4211 197.733 116.976 111.396 153.433 111.396C189.891 111.396 219.446 197.733 219.446 234.117C219.433 251.593 212.472 268.348 200.094 280.7C187.715 293.053 170.932 299.991 153.433 299.991C135.935 299.991 119.152 293.053 106.773 280.7C94.3951 268.348 87.4344 251.593 87.4211 234.117Z" fill="#E6E6E6"/>
<path d="M153.434 394.394C153.362 394.394 153.292 394.38 153.226 394.352C153.16 394.325 153.1 394.285 153.05 394.235C153 394.185 152.96 394.125 152.932 394.059C152.905 393.994 152.891 393.923 152.891 393.852V166.723C152.891 166.579 152.949 166.442 153.051 166.341C153.152 166.239 153.29 166.183 153.434 166.183C153.577 166.183 153.715 166.239 153.817 166.341C153.919 166.442 153.976 166.579 153.976 166.723V393.852C153.976 393.923 153.962 393.994 153.935 394.059C153.908 394.125 153.868 394.185 153.817 394.235C153.767 394.285 153.707 394.325 153.641 394.352C153.575 394.38 153.505 394.394 153.434 394.394Z" fill="#3F3D56"/>
<path d="M153.434 210.572C153.362 210.572 153.292 210.558 153.226 210.53C153.16 210.503 153.1 210.463 153.05 210.413L126.922 184.338C126.872 184.288 126.832 184.228 126.805 184.162C126.777 184.097 126.763 184.026 126.763 183.955C126.763 183.811 126.821 183.673 126.923 183.572C127.024 183.47 127.162 183.413 127.306 183.413C127.45 183.413 127.588 183.471 127.69 183.572L153.817 209.647C153.893 209.723 153.945 209.819 153.966 209.924C153.987 210.029 153.976 210.138 153.935 210.237C153.894 210.336 153.824 210.421 153.735 210.48C153.646 210.54 153.541 210.572 153.434 210.572H153.434Z" fill="#3F3D56"/>
<path d="M153.434 255.712C153.326 255.712 153.221 255.68 153.132 255.621C153.043 255.561 152.973 255.477 152.932 255.378C152.891 255.279 152.88 255.17 152.901 255.065C152.922 254.96 152.974 254.863 153.05 254.787L196.805 211.12C196.907 211.019 197.045 210.961 197.189 210.961C197.333 210.961 197.471 211.018 197.572 211.12C197.674 211.221 197.731 211.359 197.732 211.503C197.732 211.647 197.674 211.785 197.573 211.886L153.817 255.553C153.767 255.604 153.707 255.644 153.641 255.671C153.575 255.698 153.505 255.712 153.434 255.712Z" fill="#3F3D56"/>
<path d="M0.815918 171.348C0.815918 120.715 41.9175 0.564419 92.6189 0.564419C143.32 0.564419 184.422 120.715 184.422 171.348C184.422 195.663 174.75 218.982 157.533 236.175C140.317 253.368 116.967 263.027 92.6189 263.027C68.2712 263.027 44.9208 253.368 27.7044 236.175C10.488 218.982 0.815918 195.663 0.815918 171.348Z" fill="#6C63FF"/>
<path d="M92.6186 394.394C92.4184 394.394 92.2264 394.314 92.0849 394.173C91.9433 394.031 91.8638 393.84 91.8638 393.64V77.5588C91.8638 77.3589 91.9433 77.1671 92.0849 77.0258C92.2264 76.8844 92.4184 76.805 92.6186 76.805C92.8189 76.805 93.0109 76.8844 93.1524 77.0258C93.294 77.1671 93.3735 77.3589 93.3735 77.5588V393.64C93.3735 393.84 93.294 394.031 93.1524 394.173C93.0109 394.314 92.8189 394.394 92.6186 394.394Z" fill="#3F3D56"/>
<path d="M92.6191 138.581C92.52 138.581 92.4218 138.561 92.3302 138.523C92.2385 138.485 92.1554 138.43 92.0853 138.36L55.7499 102.073C55.6099 101.931 55.5318 101.74 55.5325 101.541C55.5332 101.342 55.6127 101.151 55.7536 101.011C55.8946 100.87 56.0855 100.791 56.2848 100.79C56.4841 100.789 56.6756 100.867 56.8175 101.007L93.1529 137.294C93.2585 137.399 93.3304 137.533 93.3595 137.68C93.3886 137.826 93.3736 137.977 93.3165 138.115C93.2594 138.253 93.1626 138.371 93.0385 138.453C92.9144 138.536 92.7684 138.58 92.6191 138.58V138.581Z" fill="#3F3D56"/>
<path d="M92.6186 201.4C92.4693 201.4 92.3234 201.355 92.1992 201.273C92.0751 201.19 91.9784 201.072 91.9212 200.934C91.8641 200.797 91.8492 200.645 91.8783 200.499C91.9074 200.352 91.9792 200.218 92.0848 200.113L152.935 139.344C153.005 139.273 153.088 139.217 153.18 139.178C153.272 139.14 153.37 139.12 153.47 139.12C153.569 139.119 153.668 139.139 153.76 139.177C153.852 139.214 153.936 139.27 154.006 139.34C154.076 139.411 154.132 139.494 154.17 139.586C154.208 139.678 154.227 139.776 154.227 139.876C154.227 139.975 154.207 140.074 154.168 140.165C154.13 140.257 154.074 140.34 154.003 140.41L93.1524 201.179C93.0824 201.249 92.9992 201.304 92.9076 201.342C92.8159 201.38 92.7177 201.4 92.6186 201.4Z" fill="#3F3D56"/>
<path d="M576.705 394.954H15.8345C15.6343 394.954 15.4423 394.875 15.3007 394.733C15.1591 394.592 15.0796 394.4 15.0796 394.2C15.0796 394 15.1591 393.809 15.3007 393.667C15.4423 393.526 15.6343 393.447 15.8345 393.447H576.705C576.905 393.447 577.098 393.526 577.239 393.667C577.381 393.809 577.46 394 577.46 394.2C577.46 394.4 577.381 394.592 577.239 394.733C577.098 394.875 576.905 394.954 576.705 394.954Z" fill="#3F3D56"/>
<path d="M532.198 335.274C532.458 335.274 532.715 335.223 532.954 335.123C533.194 335.024 533.412 334.879 533.595 334.696C533.778 334.513 533.924 334.295 534.023 334.056C534.122 333.817 534.174 333.56 534.174 333.301C534.174 333.042 534.122 332.785 534.023 332.546C533.924 332.307 533.778 332.089 533.595 331.906C533.412 331.723 533.194 331.578 532.954 331.479C532.715 331.379 532.458 331.328 532.198 331.328H513.434V323.438H532.198C532.722 323.438 533.225 323.23 533.595 322.861C533.965 322.491 534.174 321.989 534.174 321.466C534.174 320.943 533.965 320.441 533.595 320.071C533.225 319.701 532.722 319.493 532.198 319.493H372.208C371.684 319.493 371.181 319.701 370.811 320.071C370.441 320.441 370.232 320.943 370.232 321.466C370.232 321.989 370.441 322.491 370.811 322.861C371.181 323.23 371.684 323.438 372.208 323.438H390.972V331.328H372.208C371.684 331.328 371.181 331.536 370.811 331.906C370.441 332.276 370.232 332.778 370.232 333.301C370.232 333.824 370.441 334.326 370.811 334.696C371.181 335.066 371.684 335.274 372.208 335.274H390.972V343.164H372.208C371.684 343.164 371.181 343.372 370.811 343.741C370.441 344.111 370.232 344.613 370.232 345.136C370.232 345.659 370.441 346.161 370.811 346.531C371.181 346.901 371.684 347.109 372.208 347.109H390.972V354.999H374.183C373.136 355 372.133 355.417 371.393 356.156C370.653 356.896 370.238 357.899 370.238 358.944C370.238 359.989 370.653 360.992 371.393 361.732C372.133 362.471 373.136 362.888 374.183 362.889H390.166C390.049 363.205 389.988 363.539 389.984 363.875V391.491C389.984 392.276 390.297 393.028 390.852 393.583C391.408 394.138 392.161 394.45 392.947 394.45C393.733 394.45 394.487 394.138 395.042 393.583C395.598 393.028 395.91 392.276 395.91 391.491V363.875C395.907 363.539 395.845 363.205 395.729 362.889H508.677C508.561 363.205 508.499 363.539 508.496 363.875V391.491C508.496 392.276 508.808 393.028 509.364 393.583C509.919 394.138 510.673 394.45 511.459 394.45C512.245 394.45 512.998 394.138 513.554 393.583C514.109 393.028 514.422 392.276 514.422 391.491V363.875C514.418 363.539 514.357 363.205 514.24 362.889H530.223C530.742 362.89 531.257 362.788 531.737 362.59C532.217 362.392 532.653 362.102 533.02 361.736C533.387 361.369 533.679 360.934 533.878 360.455C534.077 359.976 534.179 359.462 534.179 358.944C534.179 358.425 534.077 357.912 533.878 357.433C533.679 356.954 533.387 356.519 533.02 356.152C532.653 355.786 532.217 355.496 531.737 355.298C531.257 355.1 530.742 354.998 530.223 354.999H513.434V347.109H532.198C532.458 347.109 532.715 347.059 532.955 346.96C533.196 346.861 533.414 346.716 533.598 346.532C533.781 346.349 533.927 346.132 534.027 345.892C534.126 345.652 534.177 345.396 534.177 345.136C534.177 344.877 534.126 344.62 534.027 344.38C533.927 344.141 533.781 343.923 533.598 343.74C533.414 343.557 533.196 343.412 532.955 343.313C532.715 343.214 532.458 343.163 532.198 343.164H513.434V335.274H532.198ZM394.922 323.438H509.484V331.328H394.922V323.438ZM509.484 354.999H394.922V347.109H509.484V354.999ZM509.484 343.164H394.922V335.274H509.484V343.164Z" fill="#3F3D56"/>
<path d="M241.08 361.199C241.214 360.291 241.147 359.366 240.883 358.487C240.62 357.608 240.167 356.798 239.556 356.113C238.945 355.428 238.191 354.886 237.348 354.523C236.504 354.161 235.591 353.987 234.673 354.015L194.437 313.388L186.489 324.485L228.539 360.931C228.688 362.468 229.397 363.897 230.53 364.947C231.664 365.997 233.144 366.595 234.69 366.628C236.236 366.661 237.74 366.127 238.918 365.126C240.096 364.125 240.865 362.728 241.08 361.199V361.199Z" fill="#FFB8B8"/>
<path d="M219.001 340.755L211.751 347.984C211.259 348.472 210.595 348.747 209.902 348.75C209.209 348.752 208.542 348.483 208.046 347.999L179.984 320.447C179.013 319.494 178.242 318.359 177.714 317.106C177.185 315.854 176.911 314.51 176.907 313.151C176.902 311.792 177.167 310.445 177.687 309.19C178.207 307.934 178.971 306.793 179.934 305.834C180.898 304.875 182.043 304.116 183.302 303.601C184.562 303.087 185.911 302.827 187.272 302.836C188.632 302.845 189.978 303.124 191.23 303.656C192.482 304.188 193.616 304.963 194.567 305.935L219.024 337.06C219.506 337.556 219.774 338.221 219.769 338.912C219.765 339.603 219.489 340.265 219.001 340.755Z" fill="#6C63FF"/>
<path d="M186.003 284.438C193.936 284.438 200.366 278.016 200.366 270.095C200.366 262.173 193.936 255.751 186.003 255.751C178.071 255.751 171.64 262.173 171.64 270.095C171.64 278.016 178.071 284.438 186.003 284.438Z" fill="#FFB8B8"/>
<path d="M137.471 444.997L141.108 451.167L166.67 440.095L161.303 430.988L137.471 444.997Z" fill="#FFB8B8"/>
<path d="M138.561 442.237L145.723 454.388L145.723 454.389C146.322 455.406 146.715 456.531 146.879 457.699C147.043 458.868 146.975 460.057 146.679 461.2C146.383 462.342 145.864 463.415 145.153 464.357C144.441 465.299 143.551 466.092 142.533 466.691L142.281 466.839L130.554 446.944L138.561 442.237Z" fill="#2F2E41"/>
<path d="M179.609 467.225H186.779L190.189 439.608L179.608 439.609L179.609 467.225Z" fill="#FFB8B8"/>
<path d="M177.781 464.888L191.9 464.887H191.9C193.082 464.887 194.252 465.12 195.344 465.571C196.435 466.023 197.427 466.685 198.263 467.519C199.098 468.353 199.761 469.344 200.213 470.434C200.666 471.524 200.898 472.693 200.898 473.873V474.165L177.781 474.166L177.781 464.888Z" fill="#2F2E41"/>
<path d="M150.786 450.494C150.373 450.494 149.966 450.397 149.598 450.211C149.23 450.025 148.911 449.755 148.667 449.423L141.752 440.045C141.541 439.759 141.391 439.433 141.309 439.087C141.228 438.741 141.218 438.383 141.279 438.033C141.341 437.683 141.473 437.349 141.667 437.051C141.861 436.754 142.114 436.499 142.41 436.301L173.178 415.778L154.613 367.029L194.314 370.301L195.651 412.193C195.776 416.009 194.861 419.786 193.002 423.122C191.143 426.457 188.411 429.225 185.098 431.129L152.101 450.141C151.701 450.372 151.248 450.494 150.786 450.494Z" fill="#2F2E41"/>
<path d="M179.826 461.619C179.145 461.618 178.491 461.353 178.002 460.88C177.512 460.408 177.225 459.764 177.201 459.084L175.746 418.273L193.762 417.325L192.328 458.43C192.307 459.081 192.043 459.701 191.589 460.169C191.135 460.636 190.523 460.919 189.872 460.96L180.005 461.613C179.945 461.617 179.885 461.619 179.826 461.619Z" fill="#2F2E41"/>
<path d="M192.869 378.405C188.286 378.405 178.314 373.256 172.756 371.421C171.924 372.085 167.357 375.497 162.024 374.873C158.734 374.488 155.838 372.628 153.416 369.345C148.067 362.095 158.855 335.295 165.339 310.489C168.067 300.054 174.296 289.379 184.859 291.669C188.53 292.479 191.902 294.294 194.597 296.912C197.292 299.531 199.203 302.847 200.114 306.49C201.335 311.453 200.285 317.291 199.518 321.554C199.179 322.985 198.995 324.448 198.97 325.919C199.346 328.926 195.398 376.08 194.054 378.094C193.911 378.308 193.497 378.405 192.869 378.405Z" fill="#6C63FF"/>
<path d="M182.14 378.489C182.876 377.941 183.484 377.239 183.919 376.431C184.355 375.624 184.608 374.731 184.66 373.815C184.713 372.899 184.564 371.983 184.223 371.131C183.883 370.279 183.36 369.512 182.69 368.884L182.974 311.743L169.498 313.984L173.456 369.447C172.474 370.64 171.965 372.151 172.024 373.694C172.083 375.237 172.706 376.705 173.777 377.82C174.847 378.934 176.29 379.618 177.831 379.741C179.372 379.864 180.905 379.419 182.14 378.489Z" fill="#FFB8B8"/>
<path d="M185.257 348.44H170.741C170.048 348.437 169.383 348.163 168.891 347.676C168.399 347.189 168.118 346.528 168.109 345.835L167.753 306.537C167.741 305.178 167.998 303.83 168.511 302.571C169.023 301.312 169.781 300.168 170.739 299.203C171.698 298.238 172.838 297.473 174.095 296.951C175.351 296.43 176.699 296.162 178.059 296.163C179.42 296.165 180.767 296.436 182.022 296.961C183.277 297.486 184.416 298.254 185.372 299.221C186.328 300.188 187.083 301.335 187.592 302.595C188.101 303.855 188.356 305.203 188.34 306.562L187.888 345.842C187.878 346.533 187.596 347.192 187.104 347.678C186.612 348.164 185.949 348.437 185.257 348.44Z" fill="#6C63FF"/>
<path d="M182.346 284.379C179.048 284.297 175.876 283.101 173.347 280.985C170.819 278.87 169.084 275.96 168.426 272.732C168.018 270.191 168.202 267.59 168.964 265.132C169.791 262.333 171.209 259.744 173.123 257.539C175.036 255.334 177.401 253.564 180.058 252.349C182.714 251.134 185.601 250.502 188.523 250.496C191.445 250.489 194.334 251.108 196.996 252.311C198.755 253.106 200.488 254.248 201.294 256.001C202.099 257.753 201.595 260.203 199.833 260.991C198.681 261.507 197.236 261.253 196.215 261.993C194.747 263.056 195.125 265.317 195.78 267.005C196.435 268.692 197.176 270.735 196.078 272.174C195.055 273.516 193.009 273.474 191.397 272.969C189.786 272.464 188.195 271.619 186.515 271.791C184.065 272.042 182.304 274.476 181.978 276.914C181.652 279.353 182.419 281.79 183.177 284.131L182.346 284.379Z" fill="#2F2E41"/>
<path d="M236.379 360.867C245.71 358.76 256.28 366.049 256.608 375.833C256.7 378.585 255.892 381.475 253.772 383.348C252.894 384.152 251.825 384.718 250.666 384.993C249.508 385.267 248.298 385.242 247.152 384.918C242.797 383.464 242.565 377.403 244.901 374.166C248.064 369.784 254.331 369.035 259.304 369.556C265.397 370.329 271.169 372.729 276.01 376.505C285.717 383.809 291.898 395.005 296.901 405.821C302.022 416.917 305.746 428.604 307.988 440.616C308.27 442.124 308.528 443.637 308.763 445.154C308.83 445.376 308.981 445.563 309.185 445.675C309.388 445.786 309.627 445.813 309.851 445.75C310.071 445.68 310.256 445.528 310.367 445.326C310.478 445.124 310.507 444.887 310.448 444.664C308.4 431.557 304.618 418.78 299.2 406.667C293.962 394.945 287.358 382.786 276.852 374.963C271.643 370.955 265.425 368.465 258.886 367.769C253.376 367.28 246.852 368.444 243.426 373.23C240.723 377.005 240.997 383.28 245.18 385.909C246.335 386.565 247.636 386.922 248.965 386.949C250.293 386.976 251.608 386.671 252.788 386.062C254.055 385.437 255.171 384.544 256.058 383.446C256.945 382.348 257.583 381.07 257.926 379.701C259.411 374.267 257.156 368.389 253.29 364.505C249.661 360.849 244.73 358.778 239.576 358.745C238.335 358.759 237.098 358.906 235.889 359.184C234.787 359.433 235.28 361.115 236.379 360.867V360.867Z" fill="#CCCCCC"/>
<path d="M281.375 468.476L275.577 458.59L282.726 454.408L288.524 464.294V464.294C289.08 465.241 289.236 466.37 288.958 467.431C288.68 468.493 287.991 469.401 287.043 469.955C286.095 470.51 284.965 470.666 283.902 470.388C282.839 470.111 281.93 469.423 281.375 468.476V468.476Z" fill="#6C63FF"/>
<path d="M262.204 447.928C265.02 447.928 267.303 445.648 267.303 442.836C267.303 440.024 265.02 437.744 262.204 437.744C259.388 437.744 257.105 440.024 257.105 442.836C257.105 445.648 259.388 447.928 262.204 447.928Z" fill="#6C63FF"/>
<path d="M303.808 468.476L298.01 458.59L305.16 454.408L310.958 464.294C311.513 465.241 311.669 466.369 311.391 467.431C311.114 468.493 310.425 469.401 309.477 469.955C308.529 470.51 307.399 470.665 306.336 470.388C305.273 470.111 304.364 469.423 303.808 468.476V468.476Z" fill="#6C63FF"/>
<path d="M263.173 453.094C263.176 450.225 264.318 447.475 266.35 445.446C268.381 443.418 271.135 442.277 274.007 442.273H308.306C309.52 442.275 310.684 442.757 311.543 443.615C312.401 444.472 312.884 445.635 312.886 446.847V450.745C312.882 454.236 311.491 457.584 309.019 460.053C306.546 462.521 303.195 463.91 299.698 463.914H274.007C271.135 463.911 268.381 462.77 266.35 460.741C264.318 458.713 263.176 455.963 263.173 453.094Z" fill="#3F3D56"/>
<path d="M271.083 469.751V458.295H279.368V469.751C279.368 470.849 278.932 471.901 278.155 472.677C277.378 473.453 276.324 473.888 275.225 473.888C274.127 473.888 273.073 473.453 272.296 472.677C271.519 471.901 271.083 470.849 271.083 469.751V469.751Z" fill="#3F3D56"/>
<path d="M295.125 469.751V458.295H303.41V469.751C303.41 470.849 302.974 471.901 302.197 472.677C301.42 473.453 300.366 473.888 299.267 473.888C298.169 473.888 297.115 473.453 296.338 472.677C295.561 471.901 295.125 470.849 295.125 469.751V469.751Z" fill="#3F3D56"/>
<path d="M328.835 424.423C329.682 423.372 330.913 422.7 332.256 422.554C333.599 422.409 334.945 422.802 335.999 423.646C337.052 424.491 337.727 425.72 337.874 427.061C338.022 428.402 337.63 429.747 336.785 430.8L328.404 441.222L320.454 434.845L328.835 424.423Z" fill="#6C63FF"/>
<path d="M308.646 444.953L315.36 436.604C316.993 434.578 319.363 433.283 321.951 433C324.539 432.718 327.134 433.473 329.166 435.099L331.264 436.781C333.682 438.725 335.229 441.548 335.566 444.629C335.903 447.711 335.002 450.8 333.061 453.219L327.529 460.098C326.917 460.856 326.03 461.341 325.061 461.447C324.092 461.553 323.121 461.27 322.36 460.661L309.21 450.114C308.451 449.504 307.965 448.618 307.859 447.65C307.753 446.682 308.036 445.712 308.646 444.953Z" fill="#3F3D56"/>
<path d="M329.832 423.183C330.415 422.459 331.261 421.995 332.185 421.895C333.109 421.794 334.036 422.064 334.761 422.645C335.485 423.227 335.949 424.072 336.05 424.995C336.151 425.918 335.881 426.843 335.299 427.567L325.92 439.229L320.454 434.845L329.832 423.183Z" fill="#3F3D56"/>
<path d="M316.397 442.676L330.807 454.234C331.329 454.653 331.764 455.17 332.086 455.757C332.407 456.343 332.61 456.987 332.683 457.652C332.756 458.316 332.697 458.989 332.509 459.631C332.321 460.273 332.009 460.871 331.59 461.393C331.171 461.914 330.653 462.348 330.065 462.669C329.478 462.991 328.833 463.193 328.168 463.266C327.502 463.339 326.829 463.28 326.186 463.092C325.543 462.905 324.944 462.593 324.422 462.174L310.011 450.616L316.397 442.676Z" fill="#3F3D56"/>
<path d="M332.207 461.77C332.951 460.845 333.137 459.76 332.622 459.348C332.107 458.935 331.087 459.35 330.343 460.275C329.599 461.2 329.413 462.285 329.928 462.697C330.443 463.11 331.463 462.695 332.207 461.77Z" fill="#6C63FF"/>
<path d="M460.265 309.492C466.195 309.492 471.002 304.691 471.002 298.769C471.002 292.846 466.195 288.046 460.265 288.046C454.335 288.046 449.527 292.846 449.527 298.769C449.527 304.691 454.335 309.492 460.265 309.492Z" fill="#2F2E41"/>
<path d="M433.543 390.514L428.842 390.513L426.605 372.404H433.544L433.543 390.514Z" fill="#A0616A"/>
<path d="M425.484 389.172H434.551V394.873H419.775C419.775 394.125 419.923 393.383 420.21 392.692C420.497 392 420.917 391.371 421.448 390.842C421.978 390.313 422.607 389.893 423.3 389.606C423.992 389.32 424.735 389.172 425.484 389.172Z" fill="#2F2E41"/>
<path d="M426.204 387.894L421.719 386.488L425.014 368.54L431.634 370.615L426.204 387.894Z" fill="#A0616A"/>
<path d="M418.917 384.204L427.568 386.915L425.859 392.354L411.761 387.936C412.214 386.494 413.223 385.29 414.565 384.59C415.907 383.89 417.472 383.751 418.917 384.204Z" fill="#2F2E41"/>
<path d="M427.734 380.668C427.528 380.668 427.324 380.631 427.131 380.558L423.672 379.263C423.284 379.116 422.962 378.835 422.763 378.471C422.565 378.107 422.505 377.683 422.593 377.278C423.464 373.368 426.432 360.056 428.057 352.916C429.984 344.446 458.1 342.873 459.296 342.81L459.394 342.805L462.557 346.774C463.7 350.442 463.337 353.304 461.48 355.279C456.061 361.041 439.88 357.465 437.95 357.013L429.35 379.558C429.224 379.885 429.003 380.166 428.714 380.364C428.426 380.562 428.084 380.668 427.734 380.668Z" fill="#2F2E41"/>
<path d="M432.719 383.349C432.513 383.349 432.309 383.312 432.116 383.239L428.658 381.944C428.269 381.797 427.947 381.516 427.749 381.152C427.551 380.787 427.49 380.364 427.579 379.959C428.449 376.049 431.417 362.737 433.042 355.596C434.97 347.127 463.085 345.553 464.281 345.491L464.379 345.485L467.542 349.454C468.685 353.123 468.323 355.984 466.465 357.959C461.046 363.721 444.865 360.146 442.935 359.694L434.335 382.239C434.21 382.566 433.988 382.846 433.7 383.044C433.411 383.243 433.069 383.349 432.719 383.349Z" fill="#2F2E41"/>
<path d="M422.712 328.194C422.839 328.364 422.953 328.543 423.052 328.731L441.965 330.721L444.688 326.993L450.858 330.361L445.511 339.407L422.315 333.501C421.73 334.071 420.985 334.449 420.179 334.586C419.373 334.722 418.545 334.611 417.804 334.266C417.063 333.921 416.445 333.359 416.032 332.654C415.619 331.95 415.43 331.137 415.491 330.323C415.552 329.509 415.86 328.733 416.373 328.098C416.887 327.463 417.582 326.999 418.366 326.768C419.149 326.537 419.985 326.549 420.762 326.804C421.538 327.059 422.218 327.544 422.712 328.194Z" fill="#A0616A"/>
<path d="M466.665 350.974C466.391 350.973 466.122 350.907 465.879 350.782C462.097 348.861 454.732 345.536 447.903 344.84C447.669 344.817 447.443 344.745 447.239 344.63C447.034 344.514 446.856 344.358 446.716 344.169C446.573 343.979 446.471 343.762 446.416 343.53C446.361 343.299 446.354 343.059 446.396 342.825C447.013 339.418 448.426 330.743 448.244 323.791C448.19 321.653 448.867 319.561 450.162 317.858C451.457 316.155 453.294 314.943 455.37 314.421C456.62 314.091 457.89 313.842 459.171 313.672C460.644 313.486 462.141 313.647 463.541 314.142C464.94 314.637 466.204 315.453 467.232 316.523C468.259 317.594 469.021 318.89 469.457 320.308C469.892 321.725 469.989 323.225 469.74 324.687C468.522 331.892 467.294 341.955 468.361 348.98C468.41 349.294 468.371 349.617 468.248 349.911C468.125 350.205 467.923 350.459 467.664 350.645C467.374 350.857 467.024 350.973 466.665 350.974Z" fill="#CCCCCC"/>
<path d="M448.594 332.648C448.358 332.648 448.125 332.599 447.909 332.505L442.982 330.375C442.562 330.193 442.232 329.853 442.064 329.428C441.895 329.003 441.902 328.529 442.084 328.109L445.892 319.323C446.122 318.793 446.455 318.312 446.871 317.91C447.287 317.507 447.778 317.191 448.316 316.978C448.855 316.765 449.43 316.66 450.009 316.669C450.588 316.678 451.16 316.801 451.691 317.031C452.222 317.261 452.703 317.593 453.106 318.008C453.509 318.423 453.826 318.914 454.04 319.452C454.253 319.99 454.358 320.564 454.349 321.142C454.339 321.72 454.216 322.291 453.986 322.822L450.178 331.608C450.044 331.917 449.823 332.179 449.541 332.364C449.26 332.549 448.931 332.648 448.594 332.648Z" fill="#CCCCCC"/>
<path d="M459.872 310.683C465.074 310.683 469.29 306.472 469.29 301.277C469.29 296.083 465.074 291.871 459.872 291.871C454.67 291.871 450.453 296.083 450.453 301.277C450.453 306.472 454.67 310.683 459.872 310.683Z" fill="#A0616A"/>
<path d="M450.284 296.656C454.745 299.376 459.775 301.031 464.981 301.492L463.432 299.639C464.56 300.055 465.747 300.291 466.949 300.336C467.551 300.353 468.148 300.23 468.693 299.975C469.238 299.72 469.716 299.341 470.088 298.869C470.392 298.378 470.572 297.821 470.614 297.246C470.656 296.67 470.558 296.093 470.328 295.564C469.856 294.508 469.121 293.59 468.193 292.898C466.549 291.599 464.609 290.727 462.545 290.358C460.481 289.99 458.358 290.137 456.365 290.787C454.998 291.195 453.774 291.979 452.832 293.05C451.939 294.15 450.221 295.13 450.678 296.471L450.284 296.656Z" fill="#2F2E41"/>
<path d="M461.456 289.066C458.485 286.057 454.89 283.736 450.924 282.264C448.407 281.207 445.646 280.865 442.946 281.275C440.284 281.81 437.767 283.649 437.025 286.257C436.418 288.389 437.044 290.686 437.987 292.693C438.929 294.7 440.187 296.562 440.949 298.644C441.726 300.769 441.96 303.054 441.629 305.292C441.298 307.529 440.413 309.649 439.053 311.459C437.694 313.268 435.903 314.71 433.844 315.653C431.785 316.596 429.523 317.01 427.263 316.859C429.878 317.209 432.289 318.436 434.845 319.089C437.401 319.743 440.418 319.698 442.317 317.87C444.327 315.935 444.367 312.789 444.27 310.003L443.837 297.577C443.763 295.465 443.7 293.285 444.463 291.314C445.226 289.342 447.038 287.616 449.155 287.634C450.759 287.647 452.178 288.618 453.464 289.575C454.751 290.532 456.112 291.553 457.71 291.695C459.307 291.837 461.132 290.657 461.012 289.059" fill="#2F2E41"/>
<path d="M444.037 348.557C443.413 348.557 442.797 348.418 442.233 348.151C441.669 347.884 441.172 347.495 440.776 347.012C440.381 346.53 440.098 345.966 439.947 345.362C439.796 344.757 439.782 344.126 439.904 343.515C440.027 342.904 440.284 342.328 440.656 341.828C441.029 341.327 441.508 340.916 442.059 340.623C442.61 340.33 443.219 340.163 443.842 340.134C444.466 340.104 445.088 340.213 445.664 340.453H445.664C445.837 340.526 446.005 340.611 446.167 340.707L463.324 333.015L463.806 328.367L471.202 328.17L471.153 335.906C471.144 336.803 470.846 337.672 470.302 338.385C469.759 339.099 469 339.619 468.138 339.867L448.074 345.571C448.035 345.703 447.989 345.833 447.936 345.961C447.614 346.729 447.073 347.385 446.379 347.847C445.685 348.309 444.871 348.556 444.037 348.558V348.557Z" fill="#A0616A"/>
<path d="M470.575 331.962C470.365 332.069 470.135 332.131 469.9 332.145L464.541 332.474C464.084 332.501 463.636 332.347 463.293 332.044C462.95 331.742 462.741 331.316 462.713 330.86L462.125 321.304C462.088 320.726 462.166 320.147 462.354 319.599C462.542 319.052 462.837 318.547 463.22 318.113C463.604 317.679 464.069 317.325 464.59 317.071C465.111 316.817 465.677 316.667 466.255 316.632C466.834 316.596 467.413 316.675 467.961 316.864C468.509 317.052 469.015 317.346 469.449 317.73C469.883 318.114 470.237 318.579 470.491 319.099C470.744 319.62 470.893 320.185 470.928 320.763L471.516 330.319C471.536 330.654 471.458 330.989 471.291 331.281C471.124 331.573 470.875 331.81 470.575 331.962H470.575Z" fill="#CCCCCC"/>
<path d="M428.634 349.524H458.929C459.67 349.524 460.271 348.924 460.271 348.183C460.271 347.443 459.67 346.843 458.929 346.843H428.634C427.893 346.843 427.292 347.443 427.292 348.183C427.292 348.924 427.893 349.524 428.634 349.524Z" fill="#3F3D56"/>
<path d="M415.404 347.034V328.269C415.405 327.609 415.668 326.977 416.135 326.51C416.602 326.043 417.236 325.781 417.897 325.78H452.027C452.687 325.781 453.321 326.043 453.788 326.51C454.256 326.977 454.518 327.609 454.519 328.269V347.034C454.518 347.694 454.256 348.327 453.788 348.794C453.321 349.26 452.687 349.523 452.027 349.524H417.897C417.236 349.523 416.603 349.26 416.135 348.794C415.668 348.327 415.405 347.694 415.404 347.034Z" fill="#3F3D56"/>
<path d="M434.961 339.95C436.232 339.95 437.262 338.921 437.262 337.652C437.262 336.383 436.232 335.354 434.961 335.354C433.691 335.354 432.66 336.383 432.66 337.652C432.66 338.921 433.691 339.95 434.961 339.95Z" fill="white"/>
<path d="M187.608 294.281H179.304C178.503 294.281 177.735 293.964 177.169 293.398C176.603 292.833 176.284 292.066 176.284 291.266C176.284 290.466 176.603 289.699 177.169 289.134C177.735 288.568 178.503 288.25 179.304 288.25H187.608C188.408 288.25 189.176 288.568 189.743 289.134C190.309 289.699 190.627 290.466 190.627 291.266C190.627 292.066 190.309 292.833 189.743 293.398C189.176 293.964 188.408 294.281 187.608 294.281Z" fill="#6C63FF"/>
</g>
<defs>
<clipPath id="clip0">
<rect width="576.644" height="473.601" fill="white" transform="translate(0.815918 0.564423)"/>
</clipPath>
</defs>
</svg>
